<svg width="30" height="30" viewBox="0 0 30 30" fill="none" xmlns="http://www.w3.org/2000/svg">
<path d="M29.9238 8.82011C29.8535 7.22609 29.5956 6.13021 29.2263 5.18062C28.8453 4.17266 28.2591 3.27023 27.4912 2.52003C26.7408 1.75816 25.8323 1.16616 24.8358 0.791173C23.8805 0.421913 22.7902 0.164141 21.1958 0.0938601C19.5896 0.0176274 19.0797 0 15.0058 0C10.932 0 10.4221 0.0176274 8.82179 0.0879081C7.22747 0.158189 6.13138 0.41619 5.18184 0.785221C4.17345 1.16616 3.27085 1.75221 2.52051 2.52003C1.7585 3.27023 1.16661 4.17861 0.791323 5.1749C0.421993 6.13021 0.164172 7.22014 0.0938781 8.81416C0.0176307 10.4201 0 10.9299 0 15.003C0 19.076 0.0176307 19.5859 0.0879248 21.1858C0.158219 22.7799 0.416269 23.8757 0.785599 24.8253C1.16661 25.8333 1.7585 26.7357 2.52051 27.4859C3.27085 28.2478 4.17941 28.8398 5.17589 29.2148C6.13138 29.584 7.22151 29.8418 8.81607 29.9121C10.4161 29.9826 10.9263 30 15.0001 30C19.074 30 19.5839 29.9826 21.1842 29.9121C22.7785 29.8418 23.8746 29.584 24.8241 29.2148C26.8407 28.4353 28.435 26.8413 29.2146 24.8253C29.5837 23.87 29.8418 22.7799 29.9121 21.1858C29.9824 19.5859 30 19.076 30 15.003C30 10.9299 29.994 10.4201 29.9238 8.82011ZM27.2217 21.0686C27.1571 22.5338 26.911 23.3249 26.7058 23.8524C26.2016 25.1593 25.1641 26.1966 23.8569 26.7007C23.3294 26.9058 22.5323 27.1519 21.0727 27.2162C19.49 27.2868 19.0153 27.3042 15.0118 27.3042C11.0082 27.3042 10.5276 27.2868 8.9507 27.2162C7.48529 27.1519 6.69396 26.9058 6.16642 26.7007C5.51591 26.4603 4.92379 26.0794 4.44318 25.5812C3.94494 25.0948 3.56393 24.5087 3.32351 23.8583C3.11836 23.3309 2.87221 22.5338 2.80787 21.0746C2.73735 19.4922 2.71995 19.0174 2.71995 15.0147C2.71995 11.0119 2.73735 10.5313 2.80787 8.95495C2.87221 7.48981 3.11836 6.69864 3.32351 6.17119C3.56393 5.52058 3.94494 4.9288 4.44913 4.44806C4.93547 3.94991 5.52163 3.56898 6.17237 3.32883C6.69992 3.12371 7.49719 2.87762 8.95666 2.81306C10.5393 2.74278 11.0142 2.72515 15.0175 2.72515C19.027 2.72515 19.5017 2.74278 21.0786 2.81306C22.544 2.87762 23.3353 3.12371 23.8629 3.32883C24.5134 3.56898 25.1055 3.94991 25.5861 4.44806C26.0844 4.93453 26.4654 5.52058 26.7058 6.17119C26.911 6.69864 27.1571 7.49554 27.2217 8.95495C27.292 10.5373 27.3096 11.0119 27.3096 15.0147C27.3096 19.0174 27.292 19.4863 27.2217 21.0686Z" fill="black"/>
<path d="M15.0059 7.29636C10.7504 7.29636 7.29779 10.7481 7.29779 15.003C7.29779 19.2578 10.7504 22.7096 15.0059 22.7096C19.2615 22.7096 22.7139 19.2578 22.7139 15.003C22.7139 10.7481 19.2615 7.29636 15.0059 7.29636ZM15.0059 20.002C12.2452 20.002 10.0058 17.7634 10.0058 15.003C10.0058 12.2426 12.2452 10.0039 15.0059 10.0039C17.7668 10.0039 20.0059 12.2426 20.0059 15.003C20.0059 17.7634 17.7668 20.002 15.0059 20.002Z" fill="black"/>
<path d="M24.8184 6.99167C24.8184 7.98522 24.0127 8.79081 23.0187 8.79081C22.025 8.79081 21.2192 7.98522 21.2192 6.99167C21.2192 5.9979 22.025 5.19254 23.0187 5.19254C24.0127 5.19254 24.8184 5.9979 24.8184 6.99167Z" fill="black"/>
</svg>
