<svg width="30" height="27" viewBox="0 0 30 27" fill="none" xmlns="http://www.w3.org/2000/svg">
<path d="M0.529889 12.5245L7.4425 15.1045L10.1181 23.7092C10.2893 24.2603 10.9632 24.464 11.4105 24.0983L15.2637 20.9571C15.6676 20.628 16.2429 20.6116 16.665 20.918L23.6148 25.9637C24.0933 26.3115 24.7712 26.0493 24.8912 25.4711L29.9823 0.981948C30.1133 0.350347 29.4927 -0.176554 28.8913 0.0560464L0.521789 11.0002C-0.178312 11.2702 -0.172212 12.2614 0.529889 12.5245ZM9.6869 13.7311L23.1967 5.41035C23.4395 5.26125 23.6893 5.58955 23.4808 5.78295L12.3313 16.147C11.9394 16.5118 11.6866 17 11.615 17.5299L11.2352 20.3445C11.1849 20.7203 10.657 20.7576 10.5533 20.3939L9.0926 15.2614C8.9253 14.676 9.1691 14.0507 9.6869 13.7311Z" fill="white"/>
</svg>
