<svg width="30" height="18" viewBox="0 0 30 18" fill="none" xmlns="http://www.w3.org/2000/svg">
<path d="M29.7326 15.2675C29.652 15.1325 29.1532 14.0487 26.753 11.821C24.2403 9.48836 24.5779 9.86713 27.6043 5.83371C29.4476 3.37728 30.1845 1.87717 29.9539 1.23587C29.7345 0.62458 28.3788 0.785842 28.3788 0.785842L23.8709 0.812093C23.8709 0.812093 23.5371 0.76709 23.2878 0.915226C23.0459 1.06149 22.8902 1.39901 22.8902 1.39901C22.8902 1.39901 22.1758 3.3004 21.2232 4.91677C19.215 8.32765 18.4105 8.50766 18.0824 8.29577C17.3192 7.80261 17.5105 6.31187 17.5105 5.25429C17.5105 1.94843 18.0111 0.570201 16.5335 0.213925C16.0422 0.0957908 15.6822 0.0170351 14.4277 0.00390912C12.8189 -0.0129671 11.4556 0.00953453 10.685 0.386437C10.1712 0.637706 9.77551 1.19837 10.0174 1.23025C10.3156 1.26963 10.9906 1.41214 11.3488 1.89967C11.8119 2.52784 11.795 3.9417 11.795 3.9417C11.795 3.9417 12.0613 7.83261 11.1744 8.31639C10.5649 8.64829 9.73051 7.97137 7.93975 4.87552C7.02281 3.29103 6.32901 1.53777 6.32901 1.53777C6.32901 1.53777 6.19587 1.2115 5.95773 1.03711C5.66896 0.82522 5.26393 0.757715 5.26393 0.757715L0.977365 0.783967C0.977365 0.783967 0.334193 0.802718 0.0979258 1.08211C-0.11209 1.33151 0.0810495 1.84529 0.0810495 1.84529C0.0810495 1.84529 3.43755 9.6965 7.23658 13.6549C10.7225 17.2833 14.679 17.0452 14.679 17.0452H16.4716C16.4716 17.0452 17.0135 16.9852 17.2892 16.687C17.5442 16.4132 17.5348 15.8995 17.5348 15.8995C17.5348 15.8995 17.4992 13.4936 18.6168 13.1392C19.7175 12.7905 21.1313 15.4644 22.6296 16.4939C23.7622 17.2721 24.6229 17.1014 24.6229 17.1014L28.63 17.0452C28.63 17.0452 30.7264 16.9158 29.7326 15.2675Z" fill="black"/>
</svg>
